<svg xmlns="http://www.w3.org/2000/svg" width="149.833" height="101.082" viewBox="0 0 149.833 101.082">
  <g id="bag" transform="translate(-306.112 -1858.548)">
    <g id="Path_23" data-name="Path 23" transform="translate(306.112 1937.349) rotate(-49)">
      <path d="M 94.12990570068359 19.06416702270508 L 10.28207969665527 19.06416702270508 C 5.439622402191162 19.06416702270508 1.5000079870224 15.12453842163086 1.5000079870224 10.28208160400391 C 1.5000079870224 5.439624309539795 5.439622402191162 1.499995946884155 10.28207969665527 1.499995946884155 L 94.12990570068359 1.499995946884155 C 98.97236633300781 1.499995946884155 102.911994934082 5.439624309539795 102.911994934082 10.28208160400391 C 102.911994934082 15.12453842163086 98.97236633300781 19.06416702270508 94.12990570068359 19.06416702270508 Z" stroke="none"/>
      <path d="M 10.28207397460938 2.999998092651367 C 6.2667236328125 2.999998092651367 2.999992370605469 6.266731262207031 2.999992370605469 10.28208160400391 C 2.999992370605469 14.29743194580078 6.2667236328125 17.56416511535645 10.28207397460938 17.56416511535645 L 94.12991333007813 17.56416511535645 C 98.145263671875 17.56416511535645 101.411979675293 14.29743194580078 101.411979675293 10.28208160400391 C 101.411979675293 6.266731262207031 98.145263671875 2.999998092651367 94.12991333007813 2.999998092651367 L 10.28207397460938 2.999998092651367 M 10.28207397460938 -1.9073486328125e-06 L 94.12991333007813 -1.9073486328125e-06 C 99.80854034423828 -1.9073486328125e-06 104.411979675293 4.603447914123535 104.411979675293 10.28208160400391 C 104.411979675293 15.96071434020996 99.80854034423828 20.56416511535645 94.12991333007813 20.56416511535645 L 10.28207397460938 20.56416511535645 C 4.603446960449219 20.56416511535645 -7.62939453125e-06 15.96071434020996 -7.62939453125e-06 10.28208160400391 C -7.62939453125e-06 4.603447914123535 4.603446960449219 -1.9073486328125e-06 10.28207397460938 -1.9073486328125e-06 Z" stroke="none" fill="#000"/>
    </g>
    <g id="Path_24" data-name="Path 24" transform="matrix(-0.656, -0.755, 0.755, -0.656, 436.363, 1959.63)">
      <path d="M 98.40489959716797 23.44752883911133 L 12.97376441955566 23.44752883911133 C 7.198514461517334 23.44752883911133 2.499997615814209 18.7490119934082 2.499997615814209 12.97376251220703 C 2.499997615814209 7.198512554168701 7.198514461517334 2.499995946884155 12.97376441955566 2.499995946884155 L 98.40489959716797 2.499995946884155 C 104.1801452636719 2.499995946884155 108.878662109375 7.198512554168701 108.878662109375 12.97376251220703 C 108.878662109375 18.7490119934082 104.1801452636719 23.44752883911133 98.40489959716797 23.44752883911133 Z" stroke="none"/>
      <path d="M 12.97374725341797 5.000001907348633 C 8.577011108398438 5.000001907348633 4.999992370605469 8.577022552490234 4.999992370605469 12.97376251220703 C 4.999992370605469 17.37050247192383 8.577011108398438 20.94752311706543 12.97374725341797 20.94752311706543 L 98.40489196777344 20.94752311706543 C 102.801628112793 20.94752311706543 106.3786544799805 17.37050247192383 106.3786544799805 12.97376251220703 C 106.3786544799805 8.577022552490234 102.801628112793 5.000001907348633 98.40489196777344 5.000001907348633 L 12.97374725341797 5.000001907348633 M 12.97374725341797 1.9073486328125e-06 L 98.40489196777344 1.9073486328125e-06 C 105.5701141357422 1.9073486328125e-06 111.3786544799805 5.808542251586914 111.3786544799805 12.97376251220703 C 111.3786544799805 20.13898277282715 105.5701141357422 25.94752311706543 98.40489196777344 25.94752311706543 L 12.97374725341797 25.94752311706543 C 5.808547973632813 25.94752311706543 -7.62939453125e-06 20.13898277282715 -7.62939453125e-06 12.97376251220703 C -7.62939453125e-06 5.808542251586914 5.808547973632813 1.9073486328125e-06 12.97374725341797 1.9073486328125e-06 Z" stroke="none" fill="#f9f3f3"/>
    </g>
  </g>
</svg>
