<svg xmlns="http://www.w3.org/2000/svg" xmlns:xlink="http://www.w3.org/1999/xlink" width="537" height="85" viewBox="0 0 537 85">
  <defs>
    <clipPath id="clip-path">
      <rect id="Rectangle_26" data-name="Rectangle 26" width="537" height="85" transform="translate(911 500.636)" fill="#fff" stroke="#707070" stroke-width="1"/>
    </clipPath>
  </defs>
  <g id="wave" transform="translate(-911 -500.636)" clip-path="url(#clip-path)">
    <g id="Group_32" data-name="Group 32" transform="translate(666.003 525.636)">
      <path id="Path_20" data-name="Path 20" d="M107.5,111.5c6.825,0,6.825,8,13.65,8s6.825-8,13.649-8,6.824,8,13.648,8,6.824-8,13.648-8,6.823,8,13.647,8,6.825-8,13.649-8,6.825,8,13.65,8,6.825-8,13.649-8,6.824,8,13.648,8,6.824-8,13.648-8,6.824,8,13.648,8,6.825-8,13.649-8,6.826,8,13.651,8,6.825-8,13.649-8,6.825,8,13.649,8,6.824-8,13.648-8,6.825,8,13.649,8,6.825-8,13.651-8,6.825,8,13.649,8,6.824-8,13.648-8,6.824,8,13.649,8,6.825-8,13.649-8,6.826,8,13.65,8,6.825-8,13.649-8,6.824,8,13.649,8,6.825-8,13.649-8,6.825,8,13.651,8,6.825-8,13.649-8,6.825,8,13.649,8,6.825-8,13.649-8,6.825,8,13.65,8,6.825-8,13.65-8,6.824,8,13.649,8,6.825-8,13.649-8,6.825,8,13.651,8,6.825-8,13.649-8,6.825,8,13.649,8,6.826-8,13.651-8,6.825,8,13.649,8,6.825-8,13.649-8,6.826,8,13.651,8,6.825-8,13.65-8,6.825,8,13.649,8,6.825-8,13.65-8,6.825,8,13.65,8,6.826-8,13.65-8,6.826,8,13.651,8,6.825-8,13.65-8,6.825,8,13.65,8,6.826-8,13.651-8,6.825,8,13.65,8,6.825-8,13.651-8,6.826,8,13.65,8,6.825-8,13.652-8,6.825,8,13.65,8,6.822-8,13.645-8,6.824,8,13.647,8,6.826-8,13.652-8,6.824,8,13.648,8,6.823-8,13.647-8,6.825,8,13.649,8,6.825-8,13.649-8,6.824,8,13.648,8,6.825-8,13.649-8,6.825,8,13.65,8,6.824-8,13.649-8,6.825,8,13.65,8,6.825-8,13.649-8,6.825,8,13.649,8,6.826-8,13.652-8,6.825,8,13.649,8,6.826-8,13.653-8,6.826,8,13.65,8,6.826-8,13.653-8,6.825,8,13.65,8,6.825-8,13.652-8,6.825,8,13.652,8,6.826-8,13.65-8,6.826,8,13.653,8,6.826-8,13.653-8,6.825,8,13.652,8,6.826-8,13.652-8,6.826,8,13.653,8,6.825-8,13.652-8,6.826,8,13.653,8,6.827-8,13.654-8,6.826,8,13.653,8,6.826-8,13.653-8,6.826,8,13.651,8,6.825-8,13.651-8,6.826,8,13.653,8,6.827-8,13.654-8,6.826,8,13.653,8,6.827-8,13.654-8,6.827,8,13.654,8,6.828-8,13.656-8,6.825,8,13.652,8,6.828-8,13.657-8,6.829,8,13.657,8,6.829-8,13.66-8,6.829,8,13.659,8" transform="translate(-107.5 -111.5)" fill="none" stroke="#000" stroke-miterlimit="10" stroke-width="2.835"/>
    </g>
  </g>
</svg>
